<svg width="866" height="224" viewBox="0 0 866 224" fill="none" xmlns="http://www.w3.org/2000/svg">
<path d="M4.3746 116.439C4.3746 116.439 -12.0454 73.4588 27.5546 51.7288C39.6246 44.4888 46.8746 51.7288 49.2846 55.5888C51.6946 59.4488 56.0446 69.5888 56.0446 72.0088C35.8246 95.0888 17.2646 83.9088 4.3746 116.439V116.439Z" fill="#FF9100"/>
<path d="M29.875 94.3788C29.875 94.3788 38.205 117.929 58.895 114.839C58.415 98.8987 58.895 80.5787 58.895 80.5787C58.895 80.5787 47.475 92.2388 29.875 94.3788Z" fill="#FF9100"/>
<path d="M82.214 74.5388C83.474 79.7288 86.894 82.5188 91.214 82.0588C94.994 81.6488 97.874 78.4088 97.854 74.5688C97.834 69.8988 95.104 67.6888 88.264 66.8188C93.094 62.4588 102.014 63.2188 105.454 65.3288C110.734 68.5588 114.254 72.7088 114.884 78.9588C115.324 83.3088 114.104 87.2488 111.504 90.7388C106.424 97.5688 96.724 99.5588 89.494 95.2988C82.244 91.0388 78.884 81.8088 82.204 74.5488L82.214 74.5388Z" fill="black"/>
<path d="M203.283 137.479V39.8087H244.073C254.123 39.8087 262.503 41.8887 269.203 46.0587C275.903 50.2287 280.953 55.9487 284.353 63.2187C287.753 70.4987 289.453 78.7788 289.453 88.0688C289.453 98.2188 287.563 106.979 283.783 114.349C280.003 121.719 274.713 127.399 267.913 131.369C261.113 135.339 253.023 137.379 243.643 137.469H203.283V137.479ZM225.693 58.0487V119.229H242.493C247.183 119.229 251.303 118.149 254.843 115.999C258.383 113.839 261.183 110.469 263.243 105.869C265.303 101.269 266.333 95.3387 266.333 88.0587C266.333 82.0287 265.473 76.7587 263.743 72.2587C262.023 67.7587 259.533 64.2687 256.273 61.7787C253.013 59.2887 248.803 58.0487 243.633 58.0487H225.683H225.693Z" fill="#96C819"/>
<path d="M301.812 137.479V67.9587H313.163L319.483 77.8687C321.393 76.3387 323.723 74.8087 326.453 73.2687C329.183 71.7387 332.003 70.4487 334.923 69.3887C337.843 68.3387 340.543 67.8087 343.043 67.8087L347.492 85.7587C345.292 85.7587 342.822 86.1887 340.092 87.0487C337.362 87.9087 334.632 89.0888 331.902 90.5688C329.172 92.0588 326.613 93.7487 324.223 95.6687V137.469H301.812V137.479Z" fill="#96C819"/>
<path d="M376.492 108.759C377.062 111.349 378.072 113.499 379.512 115.219C380.952 116.939 382.882 118.329 385.332 119.389C387.772 120.449 390.912 120.969 394.742 120.969C398.862 120.969 402.522 120.399 405.732 119.249C408.942 118.099 411.832 116.809 414.422 115.369L420.882 131.169C418.872 132.699 416.472 134.069 413.702 135.259C410.922 136.459 407.792 137.409 404.292 138.129C400.792 138.849 397.082 139.209 393.162 139.209C384.642 139.209 377.312 137.749 371.182 134.829C365.052 131.909 360.362 127.719 357.112 122.259C353.852 116.799 352.232 110.339 352.232 102.869C352.232 95.3987 353.762 88.5987 356.832 83.0487C359.892 77.4987 364.152 73.2087 369.612 70.1987C375.072 67.1787 381.342 65.6787 388.422 65.6787C395.502 65.6787 401.752 67.3287 406.592 70.6387C411.422 73.9387 415.012 78.3687 417.362 83.9287C419.712 89.4787 420.882 95.5187 420.882 102.029V108.779H376.502L376.492 108.759ZM399.612 95.8287C399.422 93.6287 398.822 91.6387 397.812 89.8687C396.802 88.0987 395.492 86.6887 393.862 85.6287C392.232 84.5787 390.272 84.0487 387.972 84.0487C385.962 84.0487 384.072 84.5487 382.302 85.5587C380.532 86.5687 379.142 87.9287 378.132 89.6487C377.122 91.3687 376.432 93.4287 376.052 95.8287H399.602H399.612Z" fill="#96C819"/>
<path d="M432.514 71.9887C434.624 70.8387 437.274 69.7887 440.484 68.8287C443.694 67.8687 447.094 67.1087 450.684 66.5287C454.274 65.9487 457.504 65.6687 460.384 65.6687C466.324 65.6687 471.514 66.8187 475.964 69.1187C480.414 71.4187 483.884 74.6287 486.374 78.7387C488.864 82.8587 490.104 87.5987 490.104 92.9587V137.479H477.604L472.144 130.159C469.754 132.939 467.114 135.139 464.244 136.769C461.374 138.399 458.254 139.209 454.914 139.209C446.394 139.209 440.024 137.079 435.814 132.819C431.594 128.559 429.494 122.929 429.494 115.939C429.494 108.569 431.984 103.179 436.964 99.7787C441.944 96.3787 448.354 94.6287 456.214 94.5387H467.274V93.9687C466.894 90.9987 465.814 88.7287 464.044 87.1487C462.274 85.5687 459.994 84.7787 457.224 84.7787C454.254 84.7787 451.024 85.2587 447.534 86.2187C444.034 87.1787 440.954 88.2287 438.274 89.3787L432.524 71.9987L432.514 71.9887ZM449.394 118.809C450.014 119.769 450.834 120.529 451.834 121.109C452.834 121.679 454.014 121.969 455.354 121.969C457.364 121.969 459.394 121.519 461.454 120.609C463.514 119.699 465.494 118.339 467.414 116.519V108.049H456.494C453.914 108.049 451.924 108.839 450.534 110.419C449.144 111.999 448.454 113.749 448.454 115.659C448.454 116.809 448.764 117.859 449.384 118.819L449.394 118.809Z" fill="#96C819"/>
<path d="M504.463 137.479V67.8187H518.253L522.273 75.2887C524.853 73.4687 527.663 71.8187 530.673 70.3287C533.693 68.8487 536.753 67.6687 539.863 66.8087C542.973 65.9487 545.913 65.5187 548.693 65.5187C554.533 65.5187 559.173 66.6187 562.623 68.8187C566.073 71.0187 568.533 74.1087 570.023 78.0787C571.503 82.0487 572.253 86.5787 572.253 91.6487V137.469H549.843V94.8087C549.843 92.6087 549.653 90.6888 549.273 89.0688C548.893 87.4388 548.123 86.1787 546.973 85.2587C545.823 84.3487 544.143 83.8987 541.943 83.8987C540.603 83.8987 539.023 84.2387 537.203 84.9087C535.383 85.5787 533.583 86.3687 531.813 87.2787C530.043 88.1887 528.383 89.0788 526.853 89.9388V137.479H504.443H504.463ZM567.513 75.2887C570.003 73.4687 572.773 71.8187 575.843 70.3287C578.903 68.8487 581.993 67.6687 585.103 66.8087C588.213 65.9487 591.203 65.5187 594.083 65.5187C599.923 65.5187 604.573 66.6187 608.013 68.8187C611.463 71.0187 613.903 74.1087 615.333 78.0787C616.773 82.0487 617.483 86.5787 617.483 91.6487V137.469H595.073V94.8087C595.073 92.6087 594.863 90.6888 594.423 89.0688C593.993 87.4388 593.253 86.1787 592.193 85.2587C591.143 84.3487 589.563 83.8987 587.453 83.8987C585.823 83.8987 584.123 84.2387 582.353 84.9087C580.583 85.5787 578.813 86.3687 577.043 87.2787C575.273 88.1887 573.623 89.0788 572.093 89.9388L567.493 75.2887H567.513Z" fill="#96C819"/>
<path d="M636.312 137.479V39.8087H677.102C687.152 39.8087 695.532 41.8887 702.232 46.0587C708.932 50.2287 713.982 55.9487 717.382 63.2187C720.782 70.4987 722.482 78.7788 722.482 88.0688C722.482 98.2188 720.592 106.979 716.812 114.349C713.033 121.719 707.743 127.399 700.943 131.369C694.143 135.339 686.052 137.379 676.672 137.469H636.312V137.479ZM658.722 58.0487V119.229H675.522C680.212 119.229 684.332 118.149 687.872 115.999C691.412 113.839 694.212 110.469 696.272 105.869C698.332 101.269 699.362 95.3387 699.362 88.0587C699.362 82.0287 698.502 76.7587 696.772 72.2587C695.052 67.7587 692.562 64.2687 689.302 61.7787C686.042 59.2887 681.832 58.0487 676.662 58.0487H658.712H658.722Z" fill="#FF9100"/>
<path d="M735.554 71.9887C737.664 70.8387 740.314 69.7887 743.524 68.8287C746.734 67.8687 750.134 67.1087 753.724 66.5287C757.314 65.9487 760.544 65.6687 763.414 65.6687C769.354 65.6687 774.544 66.8187 778.994 69.1187C783.444 71.4187 786.914 74.6287 789.404 78.7387C791.894 82.8587 793.134 87.5987 793.134 92.9587V137.479H780.634L775.174 130.159C772.784 132.939 770.144 135.139 767.274 136.769C764.404 138.399 761.284 139.209 757.934 139.209C749.414 139.209 743.044 137.079 738.834 132.819C734.614 128.559 732.514 122.929 732.514 115.939C732.514 108.569 735.004 103.179 739.984 99.7787C744.964 96.3787 751.374 94.6287 759.234 94.5387H770.294V93.9687C769.914 90.9987 768.834 88.7287 767.064 87.1487C765.294 85.5687 763.014 84.7787 760.244 84.7787C757.274 84.7787 754.044 85.2587 750.554 86.2187C747.054 87.1787 743.964 88.2287 741.294 89.3787L735.544 71.9987L735.554 71.9887ZM752.434 118.809C753.054 119.769 753.874 120.529 754.874 121.109C755.884 121.679 757.054 121.969 758.394 121.969C760.404 121.969 762.434 121.519 764.494 120.609C766.554 119.699 768.534 118.339 770.454 116.519V108.049H759.534C756.944 108.049 754.964 108.839 753.574 110.419C752.184 111.999 751.494 113.749 751.494 115.659C751.494 116.809 751.804 117.859 752.424 118.819L752.434 118.809Z" fill="#FF9100"/>
<path d="M808.233 71.9887C810.343 70.8387 812.993 69.7887 816.203 68.8287C819.413 67.8687 822.813 67.1087 826.403 66.5287C829.993 65.9487 833.223 65.6687 836.093 65.6687C842.033 65.6687 847.223 66.8187 851.673 69.1187C856.123 71.4187 859.593 74.6287 862.083 78.7387C864.573 82.8587 865.813 87.5987 865.813 92.9587V137.479H853.313L847.853 130.159C845.463 132.939 842.823 135.139 839.953 136.769C837.083 138.399 833.963 139.209 830.613 139.209C822.093 139.209 815.723 137.079 811.513 132.819C807.293 128.559 805.193 122.929 805.193 115.939C805.193 108.569 807.683 103.179 812.663 99.7787C817.643 96.3787 824.053 94.6287 831.913 94.5387H842.973V93.9687C842.593 90.9987 841.513 88.7287 839.743 87.1487C837.973 85.5687 835.693 84.7787 832.923 84.7787C829.953 84.7787 826.723 85.2587 823.233 86.2187C819.733 87.1787 816.643 88.2287 813.973 89.3787L808.223 71.9987L808.233 71.9887ZM825.113 118.809C825.733 119.769 826.553 120.529 827.553 121.109C828.563 121.679 829.733 121.969 831.073 121.969C833.083 121.969 835.113 121.519 837.173 120.609C839.233 119.699 841.213 118.339 843.133 116.519V108.049H832.213C829.623 108.049 827.643 108.839 826.253 110.419C824.863 111.999 824.173 113.749 824.173 115.659C824.173 116.809 824.483 117.859 825.103 118.819L825.113 118.809Z" fill="#FF9100"/>
<path d="M231.465 168.409H219.575V199.899H215.445V168.409H203.805V165.189H231.005L231.465 168.409Z" fill="black"/>
<path d="M241.214 176.669C241.864 176.229 242.684 175.849 243.694 175.519C244.694 175.199 245.724 174.939 246.784 174.749C247.834 174.559 248.704 174.469 249.384 174.469C251.294 174.469 252.964 174.829 254.414 175.539C255.864 176.249 256.994 177.239 257.804 178.499C258.624 179.759 259.024 181.209 259.024 182.839V199.889H255.964L255.454 197.389C254.674 198.209 253.594 198.929 252.214 199.559C250.834 200.189 249.464 200.499 248.104 200.499C245.214 200.499 243.064 199.769 241.674 198.299C240.274 196.839 239.584 195.019 239.584 192.839C239.584 190.419 240.414 188.559 242.084 187.249C243.754 185.939 245.914 185.279 248.564 185.279H254.944V183.899C254.944 182.199 254.524 180.789 253.694 179.659C252.864 178.539 251.454 177.979 249.484 177.979C247.884 177.979 246.534 178.169 245.424 178.539C244.314 178.909 243.304 179.289 242.384 179.659L241.214 176.649V176.669ZM243.894 194.919C244.214 195.619 244.714 196.179 245.374 196.599C246.034 197.029 246.894 197.239 247.954 197.239C249.384 197.239 250.694 196.889 251.884 196.189C253.074 195.489 254.094 194.629 254.944 193.609V187.999H248.464C246.794 187.999 245.534 188.489 244.684 189.479C243.834 190.469 243.404 191.589 243.404 192.849C243.404 193.529 243.564 194.219 243.894 194.919V194.919Z" fill="black"/>
<path d="M270.814 199.899V164.429L274.844 163.869V199.899H270.814Z" fill="black"/>
<path d="M287.344 199.899V164.429L291.374 163.869V185.769L302.604 174.489L305.054 177.089L297.504 184.589L307.714 199.899H302.914L294.794 187.239L291.374 190.659V199.899H287.344V199.899Z" fill="black"/>
<path d="M334.555 199.899V165.189H353.495L353.955 168.249H338.595V180.599H350.585L351.045 183.709H338.595V196.729H354.975L355.485 199.889H334.555V199.899Z" fill="black"/>
<path d="M364.775 199.899V175.149H367.785L368.445 178.619C369.225 177.839 370.125 177.119 371.155 176.479C372.175 175.829 373.275 175.319 374.445 174.949C375.615 174.579 376.735 174.389 377.785 174.389C379.625 174.389 381.105 174.769 382.225 175.539C383.345 176.309 384.185 177.339 384.725 178.649C385.265 179.959 385.545 181.469 385.545 183.169V199.909H381.515V183.679C381.515 181.979 381.205 180.589 380.595 179.499C379.985 178.409 378.805 177.869 377.075 177.869C376.255 177.869 375.345 178.069 374.345 178.479C373.345 178.889 372.375 179.419 371.435 180.089C370.495 180.749 369.625 181.509 368.805 182.359V199.919H364.775V199.899Z" fill="black"/>
<path d="M415.404 196.379C414.694 197.269 413.854 198.029 412.904 198.679C411.954 199.329 410.964 199.799 409.944 200.109C408.924 200.419 407.984 200.569 407.134 200.569C404.654 200.569 402.524 200.019 400.754 198.909C398.984 197.799 397.644 196.269 396.724 194.319C395.804 192.369 395.344 190.079 395.344 187.459C395.344 184.839 395.824 182.659 396.774 180.719C397.724 178.779 399.094 177.259 400.884 176.149C402.674 175.039 404.784 174.489 407.234 174.489C408.114 174.489 409.074 174.659 410.094 174.999C411.114 175.339 412.094 175.819 413.024 176.429C413.964 177.039 414.784 177.779 415.504 178.629L414.284 181.389C413.334 180.339 412.314 179.489 411.224 178.859C410.134 178.229 408.794 177.919 407.194 177.919C405.594 177.919 404.104 178.349 402.934 179.199C401.764 180.049 400.894 181.189 400.334 182.619C399.774 184.049 399.474 185.649 399.444 187.419C399.444 189.289 399.724 190.969 400.284 192.449C400.844 193.929 401.694 195.089 402.834 195.919C403.974 196.749 405.394 197.169 407.094 197.169C408.654 197.169 409.984 196.839 411.074 196.169C412.164 195.509 413.184 194.609 414.134 193.489L415.414 196.399L415.404 196.379ZM417.034 202.559C417.034 204.289 416.594 205.839 415.704 207.199C414.814 208.559 413.554 209.639 411.904 210.439C410.254 211.239 408.234 211.639 405.854 211.639C405.344 211.639 404.714 211.589 403.964 211.489C403.214 211.389 402.424 211.229 401.594 211.029C400.764 210.829 399.964 210.589 399.224 210.319C398.474 210.049 397.814 209.719 397.234 209.349L398.514 206.439C399.504 206.919 400.534 207.349 401.624 207.739C402.714 208.129 404.094 208.329 405.754 208.329C407.794 208.329 409.504 207.849 410.884 206.899C412.264 205.949 412.954 204.499 412.954 202.559V178.419L414.584 175.149H417.034V202.559V202.559Z" fill="black"/>
<path d="M429.334 199.899V164.429L433.364 163.869V199.899H429.334Z" fill="black"/>
<path d="M445.364 169.429C444.854 168.889 444.594 168.239 444.594 167.489C444.594 166.739 444.854 166.049 445.364 165.519C445.874 164.989 446.524 164.729 447.304 164.729C448.084 164.729 448.704 164.999 449.274 165.549C449.834 166.089 450.114 166.739 450.114 167.489C450.114 168.239 449.834 168.929 449.274 169.449C448.714 169.979 448.074 170.239 447.364 170.239C446.544 170.239 445.884 169.969 445.374 169.419L445.364 169.429ZM445.364 199.899V175.149H449.444V199.899H445.364Z" fill="black"/>
<path d="M460.926 195.609C461.576 195.919 462.256 196.199 462.996 196.449C463.726 196.699 464.486 196.899 465.266 197.039C466.046 197.179 466.846 197.239 467.666 197.239C468.856 197.239 469.896 197.099 470.776 196.829C471.656 196.559 472.356 196.139 472.866 195.579C473.376 195.019 473.635 194.359 473.635 193.609C473.635 192.859 473.356 192.209 472.796 191.649C472.236 191.089 471.506 190.569 470.596 190.089C469.696 189.609 468.686 189.189 467.556 188.809C466.266 188.369 464.996 187.839 463.756 187.229C462.516 186.619 461.486 185.829 460.666 184.879C459.846 183.929 459.436 182.799 459.436 181.509C459.436 179.299 460.256 177.569 461.916 176.329C463.566 175.089 465.816 174.469 468.676 174.469C469.386 174.469 470.236 174.559 471.206 174.749C472.176 174.939 473.136 175.189 474.086 175.519C475.036 175.839 475.826 176.229 476.436 176.669L475.156 179.479C474.306 179.109 473.356 178.729 472.326 178.359C471.286 177.989 470.056 177.799 468.626 177.799C467.126 177.799 465.886 178.129 464.896 178.799C463.906 179.459 463.416 180.319 463.416 181.379C463.446 182.299 464.016 183.089 465.126 183.749C466.236 184.409 467.586 184.999 469.186 185.509C470.546 185.989 471.856 186.579 473.116 187.299C474.376 188.009 475.416 188.869 476.226 189.849C477.046 190.839 477.446 192.009 477.446 193.369C477.446 195.609 476.606 197.379 474.916 198.649C473.236 199.929 470.786 200.559 467.596 200.559C466.916 200.559 466.066 200.469 465.046 200.299C464.026 200.129 463.026 199.889 462.056 199.589C461.086 199.279 460.256 198.909 459.576 198.469L460.906 195.609H460.926Z" fill="black"/>
<path d="M487.975 199.899V164.429L492.005 163.869V199.899H487.975ZM491.655 178.619C492.435 177.839 493.335 177.119 494.365 176.479C495.385 175.829 496.485 175.319 497.655 174.949C498.825 174.579 499.945 174.389 500.995 174.389C502.835 174.389 504.315 174.769 505.435 175.539C506.555 176.309 507.395 177.339 507.935 178.649C508.475 179.959 508.755 181.469 508.755 183.169V199.909H504.725V183.679C504.725 181.979 504.415 180.589 503.805 179.499C503.195 178.409 502.015 177.869 500.285 177.869C499.465 177.869 498.555 178.069 497.555 178.479C496.555 178.889 495.585 179.419 494.645 180.089C493.705 180.749 492.835 181.509 492.015 182.359L491.655 178.629V178.619Z" fill="black"/>
<path d="M577.145 165.189L567.605 199.899H563.675L555.765 171.219L548.315 199.899H544.385L534.385 165.499L538.365 164.839L546.375 194.389L553.875 165.199H557.805L565.665 194.389L573.215 165.199H577.145V165.189Z" fill="black"/>
<path d="M586.835 176.669C587.485 176.229 588.305 175.849 589.315 175.519C590.315 175.199 591.345 174.939 592.405 174.749C593.455 174.559 594.325 174.469 595.005 174.469C596.915 174.469 598.585 174.829 600.035 175.539C601.485 176.249 602.615 177.239 603.425 178.499C604.245 179.759 604.645 181.209 604.645 182.839V199.889H601.585L601.075 197.389C600.295 198.209 599.215 198.929 597.835 199.559C596.455 200.189 595.085 200.499 593.725 200.499C590.835 200.499 588.685 199.769 587.295 198.299C585.895 196.839 585.205 195.019 585.205 192.839C585.205 190.419 586.035 188.559 587.705 187.249C589.375 185.939 591.535 185.279 594.185 185.279H600.565V183.899C600.565 182.199 600.145 180.789 599.315 179.659C598.475 178.539 597.075 177.979 595.105 177.979C593.505 177.979 592.155 178.169 591.045 178.539C589.935 178.909 588.925 179.289 588.005 179.659L586.835 176.649V176.669ZM589.515 194.919C589.835 195.619 590.335 196.179 590.995 196.599C591.655 197.029 592.515 197.239 593.575 197.239C595.005 197.239 596.315 196.889 597.505 196.189C598.695 195.489 599.715 194.629 600.565 193.609V187.999H594.085C592.415 187.999 591.155 188.489 590.305 189.479C589.455 190.469 589.025 191.589 589.025 192.849C589.025 193.529 589.185 194.219 589.515 194.919Z" fill="black"/>
<path d="M616.436 199.899V164.429L620.466 163.869V199.899H616.436Z" fill="black"/>
<path d="M632.975 199.899V164.429L637.005 163.869V185.769L648.235 174.489L650.685 177.089L643.135 184.589L653.345 199.899H648.545L640.425 187.239L637.005 190.659V199.899H632.975V199.899Z" fill="black"/>
<path d="M680.184 199.899V165.189H699.114L699.574 168.249H684.214V180.599H696.204L696.664 183.709H684.214V196.729H700.594L701.104 199.889H680.174L680.184 199.899Z" fill="black"/>
<path d="M710.395 199.899V175.149H713.405L714.065 178.619C714.845 177.839 715.745 177.119 716.775 176.479C717.795 175.829 718.895 175.319 720.065 174.949C721.235 174.579 722.355 174.389 723.405 174.389C725.245 174.389 726.725 174.769 727.845 175.539C728.965 176.309 729.805 177.339 730.345 178.649C730.885 179.959 731.165 181.469 731.165 183.169V199.909H727.135V183.679C727.135 181.979 726.825 180.589 726.215 179.499C725.605 178.409 724.425 177.869 722.695 177.869C721.875 177.869 720.965 178.069 719.965 178.479C718.965 178.889 717.995 179.419 717.055 180.089C716.115 180.749 715.245 181.509 714.425 182.359V199.919H710.395V199.899Z" fill="black"/>
<path d="M761.025 196.379C760.315 197.269 759.475 198.029 758.525 198.679C757.575 199.329 756.585 199.799 755.565 200.109C754.545 200.419 753.605 200.569 752.755 200.569C750.275 200.569 748.145 200.019 746.375 198.909C744.605 197.799 743.265 196.269 742.345 194.319C741.425 192.359 740.965 190.079 740.965 187.459C740.965 184.839 741.445 182.659 742.395 180.719C743.345 178.779 744.715 177.259 746.505 176.149C748.295 175.039 750.405 174.489 752.855 174.489C753.735 174.489 754.695 174.659 755.715 174.999C756.735 175.339 757.715 175.819 758.645 176.429C759.575 177.039 760.405 177.779 761.125 178.629L759.905 181.389C758.955 180.339 757.935 179.489 756.845 178.859C755.755 178.229 754.415 177.919 752.815 177.919C751.215 177.919 749.725 178.349 748.555 179.199C747.385 180.049 746.515 181.189 745.955 182.619C745.395 184.049 745.095 185.649 745.065 187.419C745.065 189.289 745.345 190.969 745.905 192.449C746.465 193.929 747.315 195.089 748.455 195.919C749.595 196.749 751.015 197.169 752.715 197.169C754.275 197.169 755.605 196.839 756.695 196.169C757.785 195.509 758.805 194.609 759.755 193.489L761.035 196.399L761.025 196.379ZM762.655 202.559C762.655 204.289 762.215 205.839 761.325 207.199C760.435 208.559 759.175 209.639 757.525 210.439C755.875 211.239 753.855 211.639 751.475 211.639C750.965 211.639 750.335 211.589 749.585 211.489C748.835 211.389 748.045 211.229 747.215 211.029C746.375 210.829 745.585 210.589 744.845 210.319C744.095 210.049 743.435 209.719 742.855 209.349L744.135 206.439C745.125 206.919 746.155 207.349 747.245 207.739C748.335 208.129 749.715 208.329 751.375 208.329C753.415 208.329 755.125 207.849 756.505 206.899C757.885 205.949 758.575 204.499 758.575 202.559V178.419L760.205 175.149H762.655V202.559V202.559Z" fill="black"/>
<path d="M774.965 199.899V164.429L778.995 163.869V199.899H774.965Z" fill="black"/>
<path d="M790.985 169.429C790.475 168.889 790.215 168.239 790.215 167.489C790.215 166.739 790.475 166.049 790.985 165.519C791.495 164.989 792.145 164.729 792.925 164.729C793.705 164.729 794.325 164.999 794.895 165.549C795.465 166.099 795.735 166.739 795.735 167.489C795.735 168.239 795.455 168.929 794.895 169.449C794.335 169.979 793.695 170.239 792.985 170.239C792.165 170.239 791.505 169.969 790.995 169.419L790.985 169.429ZM790.985 199.899V175.149H795.065V199.899H790.985Z" fill="black"/>
<path d="M806.554 195.609C807.204 195.919 807.884 196.199 808.624 196.449C809.354 196.699 810.114 196.899 810.894 197.039C811.674 197.179 812.474 197.239 813.294 197.239C814.484 197.239 815.524 197.099 816.404 196.829C817.284 196.559 817.984 196.139 818.494 195.579C819.004 195.019 819.264 194.359 819.264 193.609C819.264 192.859 818.984 192.209 818.424 191.649C817.864 191.089 817.134 190.569 816.224 190.089C815.324 189.609 814.314 189.189 813.184 188.809C811.894 188.369 810.624 187.839 809.384 187.229C808.144 186.619 807.114 185.829 806.294 184.879C805.474 183.929 805.064 182.799 805.064 181.509C805.064 179.299 805.884 177.569 807.544 176.329C809.194 175.089 811.444 174.469 814.304 174.469C815.014 174.469 815.864 174.559 816.834 174.749C817.804 174.939 818.764 175.189 819.714 175.519C820.664 175.839 821.454 176.229 822.064 176.669L820.784 179.479C819.934 179.109 818.984 178.729 817.954 178.359C816.914 177.989 815.684 177.799 814.254 177.799C812.754 177.799 811.514 178.129 810.524 178.799C809.534 179.459 809.044 180.319 809.044 181.379C809.074 182.299 809.644 183.089 810.754 183.749C811.864 184.409 813.214 184.999 814.814 185.509C816.174 185.989 817.484 186.579 818.744 187.299C820.004 188.009 821.044 188.869 821.854 189.849C822.674 190.839 823.074 192.009 823.074 193.369C823.074 195.609 822.234 197.379 820.544 198.649C818.864 199.929 816.414 200.559 813.224 200.559C812.544 200.559 811.694 200.469 810.674 200.299C809.654 200.129 808.654 199.889 807.684 199.589C806.714 199.279 805.884 198.909 805.204 198.469L806.534 195.609H806.554Z" fill="black"/>
<path d="M833.605 199.899V164.429L837.635 163.869V199.899H833.605ZM837.285 178.619C838.065 177.839 838.965 177.119 839.995 176.479C841.015 175.829 842.115 175.319 843.285 174.949C844.455 174.579 845.575 174.389 846.625 174.389C848.465 174.389 849.945 174.769 851.065 175.539C852.185 176.309 853.025 177.339 853.565 178.649C854.105 179.959 854.385 181.469 854.385 183.169V199.909H850.355V183.679C850.355 181.979 850.045 180.589 849.435 179.499C848.825 178.409 847.645 177.869 845.915 177.869C845.095 177.869 844.185 178.069 843.185 178.479C842.185 178.889 841.215 179.419 840.275 180.089C839.335 180.749 838.465 181.509 837.645 182.359L837.285 178.629V178.619Z" fill="black"/>
<path d="M64.4845 116.609C64.4845 116.609 85.9845 177.549 64.4845 222.579C96.8145 205.889 159.715 166.669 170.915 112.439C182.115 58.2088 181.925 13.0487 120.345 4.24874C58.7645 -4.55126 43.7445 14.4387 44.9745 27.3487C46.2145 40.2587 51.7145 53.4087 63.4245 50.9387C82.9545 46.8087 94.8645 36.8788 111.785 43.7388C127.535 50.1188 144.695 66.0387 138.605 90.8887C130.955 122.099 107.655 132.939 64.4945 116.609H64.4845Z" fill="#96C819"/>
</svg>
