<svg id="Layer_1" data-name="Layer 1" xmlns="http://www.w3.org/2000/svg" viewBox="0 0 204.25 137.32"><defs><style>.cls-1{fill:#002651;}.cls-2{fill:#bdbdbd;}.cls-3{fill:#fe8721;}</style></defs><path class="cls-1" d="M147.41,46.72V50H132.88a8.56,8.56,0,0,1,.34-3.8,12.78,12.78,0,0,1,3.7-5.18c1.47-1.24,3-2.44,4.49-3.64A6.82,6.82,0,0,0,144,33.7c.81-3.06-1.14-5.34-4.3-5A5,5,0,0,0,136,30.8c-.35.47-.64,1-1,1.55l-2.49-2.07a8,8,0,0,1,8-4.72,12.6,12.6,0,0,1,2.45.36c3.23.89,4.85,3.39,4.71,7a7.46,7.46,0,0,1-2.74,5.6c-1.67,1.43-3.43,2.78-5.09,4.24-1,.87-1.9,1.87-2.81,2.83a8.05,8.05,0,0,0-.76,1.16Z"/><path class="cls-1" d="M153.33,32.36c-.78-.65-1.51-1.24-2.21-1.87a.62.62,0,0,1-.09-.59,7.9,7.9,0,0,1,7.77-4.33,12.76,12.76,0,0,1,3,.54A6,6,0,0,1,166,31.68a8,8,0,0,1-3.14,7.2C161,40.42,159,42,157.2,43.58a21.39,21.39,0,0,0-2.07,2.28,6,6,0,0,0-.5.88h11.1v3.19H151.21a8.25,8.25,0,0,1,1-5.17,14.83,14.83,0,0,1,3.67-4.33c1.34-1.08,2.71-2.15,4-3.23a6,6,0,0,0,2.56-5.26A3.31,3.31,0,0,0,160,28.86a5,5,0,0,0-5.7,2.06C153.93,31.36,153.66,31.83,153.33,32.36Z"/><path class="cls-1" d="M134,67.27h3.12v.8c0,5,0,10.07,0,15.1a7.68,7.68,0,0,0,.66,3c.9,2,3.11,2.93,5.55,2.54a4.86,4.86,0,0,0,4.42-4.89,5.87,5.87,0,0,0-1.63-5,6.24,6.24,0,0,0-7-.72l-.76.42c0-1,0-1.87,0-2.76,0-.17.24-.4.42-.48,4.83-2.22,11.52.13,12,6.88A9,9,0,0,1,149.63,88a8.15,8.15,0,0,1-6.55,3.69,8.73,8.73,0,0,1-4.32-.55,7.63,7.63,0,0,1-4.69-6.6,21.83,21.83,0,0,1-.1-2.56q0-6.92,0-13.85Z"/><path class="cls-1" d="M130.15,91.3a1.11,1.11,0,0,1-.27.06c-2.89,0-5.78,0-8.67-.11a6.52,6.52,0,0,1-2-.47,4.54,4.54,0,0,1-3.09-4.63,4.71,4.71,0,0,1,3.69-4.69,9.61,9.61,0,0,1,5.62.05.66.66,0,0,1,.39.47c0,.85,0,1.7,0,2.64-.22-.1-.37-.16-.51-.24A5.68,5.68,0,0,0,121,84a2.21,2.21,0,0,0-1.76,2.31,2,2,0,0,0,1.9,2,12,12,0,0,0,2.08.19c1.29,0,2.57,0,3.94,0V81.71c0-2.64-1.36-4-4-4-1.82,0-3.64,0-5.51,0V74.81h1c1.82,0,3.64,0,5.46,0,3.89.2,6,2.31,6.08,6.2.09,3.3,0,6.61,0,9.92A2.09,2.09,0,0,1,130.15,91.3Z"/><path class="cls-1" d="M129.28,50h-3c0-.28,0-.54,0-.79,0-2.87,0-5.74,0-8.6a7.35,7.35,0,0,0-.21-1.75,2.92,2.92,0,0,0-2.81-2.43c-1.5-.08-3,0-4.63,0V50h-3V33.55c.06,0,.09-.08.13-.08,2.86.05,5.73.05,8.59.18a6,6,0,0,1,2.3.7,4.58,4.58,0,0,1,2.55,4.14c0,.83.09,1.66.1,2.49,0,2.74,0,5.47,0,8.21Z"/><path class="cls-1" d="M154.45,91.32a2.63,2.63,0,0,1-.06-.42V88.51l.79,0,5.91-.07a4.61,4.61,0,0,0,1.16-.19,1.56,1.56,0,0,0,1.31-1.3,1.5,1.5,0,0,0-.95-1.57,14,14,0,0,0-1.87-.79c-1.07-.38-2.17-.66-3.23-1.06a4.52,4.52,0,0,1-3.08-5.28A3.07,3.07,0,0,1,156,76a16.75,16.75,0,0,1,2.79-1.07,3.72,3.72,0,0,1,1.11-.06h6.09V77.7h-2.5c-1.16,0-2.32,0-3.48,0a5.59,5.59,0,0,0-1.41.21,1.34,1.34,0,0,0-1.1,1.09,1.53,1.53,0,0,0,.74,1.52,8,8,0,0,0,1.6.74c1.46.52,2.94,1,4.39,1.51,1.73.66,2.48,1.88,2.5,3.9a3.76,3.76,0,0,1-2.37,3.94,10.58,10.58,0,0,1-3.24.67C158.89,91.4,156.7,91.32,154.45,91.32Z"/><path class="cls-1" d="M114.35,88.49v2.77a5.55,5.55,0,0,1-7-5c0-.43,0-.87,0-1.31q0-8.37,0-16.74v-.91h3.07V84.57a8.66,8.66,0,0,0,.09,1.25,2.6,2.6,0,0,0,2.7,2.57Z"/><path class="cls-1" d="M107.69,25.88h3.17V49.94h-3.17Z"/><path class="cls-1" d="M109.25,133.56V123.25a11.65,11.65,0,0,1,4,.3,4.41,4.41,0,0,1,3,4.08,7.47,7.47,0,0,1,0,1.83,4.5,4.5,0,0,1-4.66,4.09C110.83,133.58,110.07,133.56,109.25,133.56Zm1.4-1.33c1.62.17,2.9-.21,3.68-1.67a4.76,4.76,0,0,0-.42-5,3.56,3.56,0,0,0-3.26-1.08Z"/><path class="cls-1" d="M187.18,132.29v-9h1.32v10.29c-1.59-.1-3.21.25-4.78-.24a3.59,3.59,0,0,1-2.06-4.7,3.54,3.54,0,0,1,4.5-2.1c.56.21.6.32.45,1.41a11.54,11.54,0,0,0-1.37-.36,2.13,2.13,0,0,0-2.37,2,2.2,2.2,0,0,0,1.72,2.67,17.07,17.07,0,0,0,2,.07A4.13,4.13,0,0,0,187.18,132.29Z"/><path class="cls-1" d="M60.57,130.46a13.76,13.76,0,0,0-1.92-.05.89.89,0,0,0-.84,1,.88.88,0,0,0,.91.86,18.18,18.18,0,0,0,2.09,0c.13,0,.36-.24.37-.38,0-.91,0-1.84,0-2.75a1.37,1.37,0,0,0-1.47-1.43c-.85-.06-1.7,0-2.59,0v-1.34c1.25.09,2.52.09,3.74.3a1.85,1.85,0,0,1,1.56,1.81c.07,1.65,0,3.31,0,4.94a37,37,0,0,1-4.21,0,1.86,1.86,0,0,1-1.74-2.15,2.05,2.05,0,0,1,1.88-2,6,6,0,0,1,1.12-.06C60.64,129.24,60.75,129.39,60.57,130.46Z"/><path class="cls-1" d="M177.39,132.92a4,4,0,0,1-4.1.46,3.31,3.31,0,0,1-2-3.27c.06-2.76,2-4.32,4.65-3.65a1.82,1.82,0,0,1,1.55,1.64,2,2,0,0,1-1.09,2.32,20,20,0,0,1-2.71.64v-1.25c.49-.05,1-.06,1.48-.15a1.09,1.09,0,0,0,.95-1.27c0-.55-.47-.87-1.18-.88a2.26,2.26,0,0,0-2.25,2.13,2.36,2.36,0,0,0,3.08,2.7C176.56,131.94,177,132.27,177.39,132.92Z"/><path class="cls-1" d="M84.71,133.7A3.68,3.68,0,1,1,88.34,130,3.57,3.57,0,0,1,84.71,133.7ZM87,130a2.29,2.29,0,1,0-2.27,2.44A2.26,2.26,0,0,0,87,130Z"/><path class="cls-1" d="M155.82,131.05v-1.24c.5-.05,1-.07,1.48-.16a1.09,1.09,0,0,0,.94-1.28c-.05-.51-.47-.83-1.14-.86a2.23,2.23,0,0,0-2.28,2,2.32,2.32,0,0,0,1.68,2.85,10,10,0,0,0,2.1-.12l0-.23.8.91a3.89,3.89,0,0,1-3.87.51,3.16,3.16,0,0,1-2.15-2.95c-.16-2.1.9-3.75,2.69-4.07a5.28,5.28,0,0,1,1.94,0,1.69,1.69,0,0,1,1.54,1.69,2,2,0,0,1-1.14,2.29A20.07,20.07,0,0,1,155.82,131.05Z"/><path class="cls-1" d="M39.3,133.7a3.68,3.68,0,0,1,.05-7.36A3.63,3.63,0,0,1,43,130.06,3.58,3.58,0,0,1,39.3,133.7ZM37,130a2.26,2.26,0,0,0,2.32,2.46,2.46,2.46,0,0,0,0-4.91A2.26,2.26,0,0,0,37,130Z"/><path class="cls-1" d="M122.92,131v-1.2c.54-.06,1.06-.08,1.56-.18a1.07,1.07,0,0,0,.89-1.25c-.07-.64-.53-.82-1.06-.87a2.24,2.24,0,0,0-2.38,2.26,2.27,2.27,0,0,0,2.14,2.68,10.83,10.83,0,0,0,1.81-.29l.76.71a3.88,3.88,0,0,1-3.55.69,2.93,2.93,0,0,1-2.39-2.34,5.86,5.86,0,0,1,.11-2.57,3.47,3.47,0,0,1,5-2,1.81,1.81,0,0,1,1,1.87,1.9,1.9,0,0,1-1.25,2A20,20,0,0,1,122.92,131Z"/><path class="cls-1" d="M26.91,127.67v5.86H25.66v-7c1.46,0,2.94-.22,4.38.24a2,2,0,0,1,1.43,2.13c0,1.53,0,3.06,0,4.64H30.22c0-1.15,0-2.32,0-3.49a8.65,8.65,0,0,0-.11-1.24,1.18,1.18,0,0,0-1.08-1C28.36,127.7,27.68,127.71,26.91,127.67Z"/><path class="cls-1" d="M15.28,126.43c1.36.06,2.65,0,3.92.2a1.89,1.89,0,0,1,1.82,2c.07,1.63,0,3.26,0,4.93H19.8c0-1,0-1.91,0-2.84a15,15,0,0,0-.06-1.77,1.21,1.21,0,0,0-1.21-1.16c-.62,0-1.25,0-2,0v5.77H15.28Z"/><path class="cls-1" d="M92.7,126.6c1.33,0,2.6-.09,3.85,0a1.86,1.86,0,0,1,1.89,2c.08,1.63,0,3.26,0,4.93H97.25v-1.14c0-1,0-2.1,0-3.14s-.48-1.43-1.53-1.52c-.53,0-1.08,0-1.7,0v5.81H92.7Z"/><path class="cls-1" d="M146.66,133.72c-2.2-1.93-2.49-4.59-3.06-7.18.17,0,.25-.05.34-.05h1a16.78,16.78,0,0,0,1.73,5.34,16,16,0,0,0,1.72-5.31h1.34C149.15,129.12,148.83,131.76,146.66,133.72Z"/><path class="cls-1" d="M46.65,126.52H48a16.29,16.29,0,0,0,1.79,5.42c.39-1,.76-1.84,1-2.71s.43-1.78.65-2.71h1.26c-.54,3.65-1.38,5.9-3,7.17C47.53,131.79,47.22,129.12,46.65,126.52Z"/><path class="cls-1" d="M70.67,126.47v1.19H68.75c0,1.27,0,2.44,0,3.61,0,.59.52.88,1.08,1,.25.05.52.08.8.12v1.1a2.53,2.53,0,0,1-3.27-2.63c0-.79,0-1.58,0-2.36s-.16-.9-.8-.8a1.72,1.72,0,0,1-.45,0c.46-.46.85-.85,1.23-1.26s.77-.83,1.15-1.25l.16.07v1.26Z"/><path class="cls-1" d="M130.9,123.26h1.32v6.9c0,1.78,0,1.78,1.65,2.26v1.09c-1.94.19-2.94-.64-3-2.51C130.88,128.44,130.9,125.89,130.9,123.26Z"/><path class="cls-1" d="M10.49,133.54H9.23V123.28h1.26Z"/><path class="cls-1" d="M164.81,133.53h-1.16c0-1.77-.08-3.52,0-5.25.07-1.11.95-1.73,2.17-1.79.65,0,1.31,0,2,0v1.16l-1.87.1a1,1,0,0,0-1.1,1.05c-.05,1.15-.06,2.31-.09,3.47Z"/><path class="cls-1" d="M194.72,130.87H193.5c0-.8,0-1.58,0-2.36-.05-1.48-.13-3-.19-4.45,0-.77.24-1,.94-1,.44,0,.71.25.69.7C194.87,126.13,194.79,128.48,194.72,130.87Z"/><path class="cls-1" d="M74.27,127.65c.56-1.39.1-1.18,2.38-1.13v7H75.39v-1c0-1.33,0-2.66,0-4,0-.67-.17-.94-.83-.83A1.45,1.45,0,0,1,74.27,127.65Z"/><path class="cls-1" d="M139.39,133.57h-.62l-.59,0v-5.79l-1.09-.09c.25-1.2.38-1.26,2.3-1.14Z"/><path class="cls-1" d="M194.1,131.88a.91.91,0,0,1,.92.91.91.91,0,0,1-1.81,0A.93.93,0,0,1,194.1,131.88Z"/><path class="cls-1" d="M75.93,123.68a.71.71,0,0,1,.76.79.72.72,0,0,1-.79.77.78.78,0,0,1,0-1.56Z"/><path class="cls-1" d="M139.47,124.45a.73.73,0,0,1-.76.79.71.71,0,0,1-.79-.77.7.7,0,0,1,.76-.78A.71.71,0,0,1,139.47,124.45Z"/><rect class="cls-2" x="5.33" y="115.3" width="193.59" height="1.64"/><path class="cls-3" d="M44.05,59.72S30.91,50.33,40,41.88c.94-.63,9.08-6.57,11-14.4a16,16,0,0,0,.62-2.81c.32.62,1.88,2,0,7.28a23.15,23.15,0,0,1-6.93,9.68c-.84.81-3.39,3.07-1.2,5.88.31-1.56.31-3.44,4.38-6.88a12.94,12.94,0,0,0,5-5.64,15.48,15.48,0,0,0,1.26-4.06c.31,1.56,2.81,6.88-3.76,11.89-.94.62-3.44,2.81-2.5,5a6.55,6.55,0,0,1,4.07-3.45c1.56-.94,4.06-1.87,4.69-5.32.31-1.25,0-1.56-.31-3.62a7.34,7.34,0,0,1,.14,8.92,3.1,3.1,0,0,1-.71.69c-1.45,1-5.73,3.52-6,6.84,0,1.26-.48,5,2.27,7.83Z"/><path class="cls-3" d="M53.13,59.4s-4.07-3.13-.94-8.45a15.75,15.75,0,0,1,4.07-3.44c.62-.31,3.44-1.56.94,2.19-.32.63-3.76,4.38-.32,2.51s3.44-4.07,3.44-5.32c0-.94.32-4.7,1.57-2.19a6.31,6.31,0,0,1,.31,1.56c0,1.57.32,1.57.27,3.23,0,.13,0,.26.05.38,0,.85.2,3.31-5,7.66-.94.94-1.4,1.87-2.74,1.87Z"/><path d="M62.54,83.65c.89,0,1.83.12,2.79.23l-.15,1.06a1.3,1.3,0,0,1-1.24,1.21c-5.32.59-10.63,1.26-15.91,2.17-2.32.4-4.61.92-6.92,1.39-.17,0-.34.11-.52.16V90c1.5.12,3,.29,4.48.32a8.29,8.29,0,0,0,1.85-.4A80.42,80.42,0,0,1,59.07,88a26.75,26.75,0,0,1,3.23,0,1.72,1.72,0,0,1,1.45.78,1.61,1.61,0,0,1-.53,2.25,7.32,7.32,0,0,1-1.69.75,22.68,22.68,0,0,1-5.3.88c-2.39.16-4.78.23-7.17.3-1.11,0-2.21-.05-3.31-.08a1.51,1.51,0,0,0-.3,0A25.12,25.12,0,0,0,40.6,94.6a.58.58,0,0,0-.27.27c.61.11,1.22.27,1.84.33,1.25.11,2.52.23,3.78.23a9.4,9.4,0,0,0,2-.38,78.54,78.54,0,0,1,10.32-1.73,30.86,30.86,0,0,1,3.19,0,2,2,0,0,1,.68.17,1.45,1.45,0,0,1,1,1.28,1.38,1.38,0,0,1-.76,1.49,9.36,9.36,0,0,1-2.11.77,42,42,0,0,1-7.15.89c-2,.12-4.07.13-6.1.21a6.38,6.38,0,0,0-1.56.27c-1.38.43-2.74.91-4.12,1.37a1.27,1.27,0,0,0-.47.32c.46.11.91.23,1.37.31a53.62,53.62,0,0,0,9.39.51c.85,0,1.71-.05,2.56-.11a1.89,1.89,0,0,0,.73-.23,21.21,21.21,0,0,1,4.27-2A7.42,7.42,0,0,1,61,98.28a1.55,1.55,0,0,1,1.54,1,1.72,1.72,0,0,1-.27,2,4.09,4.09,0,0,1-1.17.81,13.74,13.74,0,0,1-4.51,1.05,3.83,3.83,0,0,0-2,.66c-1.12.77-2.28,1.5-3.42,2.25a1.31,1.31,0,0,1-2.07-.94,1.2,1.2,0,0,1,.51-1.17,3.32,3.32,0,0,0,.57-.51c-.66,0-1.32,0-2,0a33.81,33.81,0,0,1-7.7-.88,6.35,6.35,0,0,1-2.15-1,1.93,1.93,0,0,1-.16-2.88c.45-.38,1-.69,1.45-1,.12-.08.26-.13.44-.23a7.49,7.49,0,0,1-.92-.33,6,6,0,0,1-1.26-.76,2,2,0,0,1-.1-2.94,16.12,16.12,0,0,1,1.44-1.15,12.64,12.64,0,0,1-1.32-.43,3.79,3.79,0,0,1-1-.63,1.6,1.6,0,0,1,.18-2.59,12.79,12.79,0,0,1,2.52-1.16,49.91,49.91,0,0,1,8.29-1.85c3.24-.51,6.5-.95,9.75-1.4,1.55-.21,3.1-.38,4.66-.54A.53.53,0,0,0,62.54,83.65Z"/><path class="cls-3" d="M79.35,35.82a47.43,47.43,0,0,1-3.82,13c-1.45,3.25-3,6.45-4.58,9.63a33.76,33.76,0,0,0-2.58,7.81C67.28,71.12,66.47,76,65.75,81c0,.22-.06.44-.1.66-.83,0-1.71-.06-2.63-.05.21-1.49.42-3,.66-4.47a128.16,128.16,0,0,1,3.26-15.74,33.44,33.44,0,0,1,2.21-5.19c.65-1.3,1.29-2.59,1.92-3.9,10-25.62-1.69-38.45-4.56-40.92l-.13-.1c-1.28-.82-2.49-1.54-3.67-2.16A28.73,28.73,0,0,0,56.56,7,31.81,31.81,0,0,0,46.5,6.35a25.72,25.72,0,0,0-4,.69c-1.27.43-2.34.84-3.23,1.08h0c-25.42,12.56-12,42.16-11.64,43,1.19,2.23,2.48,4.4,3.7,6.62a55.92,55.92,0,0,1,4.92,12.79,82.41,82.41,0,0,1,1.81,8.92.35.35,0,0,0,.25.25l-1.18,2.65A1.38,1.38,0,0,1,35.61,81a72.66,72.66,0,0,0-1.72-9,53.34,53.34,0,0,0-3.74-10.71c-1-2-2.17-3.95-3.28-5.92a63.07,63.07,0,0,1-5.31-11.72A37.34,37.34,0,0,1,19.7,31.18a22.64,22.64,0,0,1,1.69-7.69A31.6,31.6,0,0,1,33.64,8.08,26.6,26.6,0,0,1,45.19,3.86,33.55,33.55,0,0,1,62.13,6c8.62,3.54,14,10,16.58,18.88A26.59,26.59,0,0,1,79.35,35.82Z"/></svg>